<?xml version="1.0" encoding="UTF-8"?>
<svg width="32px" height="32px" viewBox="0 0 32 32" version="1.1" xmlns="http://www.w3.org/2000/svg" xmlns:xlink="http://www.w3.org/1999/xlink">
    <title>icon_main_my_canvers</title>
    <g id="Symbols" stroke="none" stroke-width="1" fill="none" fill-rule="evenodd">
        <g id="icon/main/my_canvers">
            <rect id="area" x="0" y="0" width="32" height="32"></rect>
            <path d="M16,3 C16.5522847,3 17,3.44771525 17,4 L17,5 L25,5 C26.5976809,5 27.9036609,6.24891996 27.9949073,7.82372721 L28,8 L28,21 L29,21 C29.5522847,21 30,21.4477153 30,22 C30,22.5522847 29.5522847,23 29,23 L21.915,23 L26.2071068,27.2928932 C26.5976311,27.6834175 26.5976311,28.3165825 26.2071068,28.7071068 C25.8466228,29.0675907 25.2793918,29.0953203 24.8871006,28.7902954 L24.7928932,28.7071068 L23,26.915 L23,27 L9,27 L9,26.914 L7.20710678,28.7071068 C6.81658249,29.0976311 6.18341751,29.0976311 5.79289322,28.7071068 C5.43240926,28.3466228 5.40467972,27.7793918 5.70970461,27.3871006 L5.79289322,27.2928932 L10.084,23 L3,23 C2.44771525,23 2,22.5522847 2,22 C2,21.4477153 2.44771525,21 3,21 L4,21 L4,8 C4,6.40231912 5.24891996,5.09633912 6.82372721,5.00509269 L7,5 L15,5 L15,4 C15,3.44771525 15.4477153,3 16,3 Z M19.085,23 L12.914,23 L10.914,25 L21.085,25 L19.085,23 Z M25,7 L7,7 C6.48716416,7 6.06449284,7.38604019 6.00672773,7.88337887 L6,8 L6,21 L26,21 L26,8 C26,7.44771525 25.5522847,7 25,7 Z M16.375,10 C16.720178,10 17,10.279822 17,10.625 L17,17.375 C17,17.720178 16.720178,18 16.375,18 L8.625,18 C8.27982203,18 8,17.720178 8,17.375 L8,10.625 C8,10.279822 8.27982203,10 8.625,10 L16.375,10 Z M23,15 C23.5522847,15 24,15.4477153 24,16 C24,16.5522847 23.5522847,17 23,17 L20,17 C19.4477153,17 19,16.5522847 19,16 C19,15.4477153 19.4477153,15 20,15 L23,15 Z M15,12 L10,12 L10,16 L15,16 L15,12 Z M23,11 C23.5522847,11 24,11.4477153 24,12 C24,12.5522847 23.5522847,13 23,13 L20,13 C19.4477153,13 19,12.5522847 19,12 C19,11.4477153 19.4477153,11 20,11 L23,11 Z" id="Combined-Shape" fill="#895ae0"></path>
        </g>
    </g>
</svg>